<svg width="80" height="80" viewBox="0 0 80 80" fill="none" xmlns="http://www.w3.org/2000/svg">
<g filter="url(#filter0_b_1413_830)">
<rect width="80" height="80" rx="16" fill="white" fill-opacity="0.3"/>
<rect x="1" y="1" width="78" height="78" rx="15" stroke="url(#paint0_linear_1413_830)" stroke-width="2"/>
</g>
<path d="M40.2492 20.187C41.5826 20.187 42.6635 21.2679 42.6635 22.6013V37.0873H57.1495C58.4829 37.0873 59.5638 38.1683 59.5638 39.5016C59.5638 40.835 58.4829 41.916 57.1495 41.916H42.6635V56.4019C42.6635 57.7353 41.5826 58.8163 40.2492 58.8163C38.9158 58.8163 37.8349 57.7353 37.8349 56.4019V41.916H23.3489C22.0155 41.916 20.9346 40.835 20.9346 39.5016C20.9346 38.1683 22.0155 37.0873 23.3489 37.0873H37.8349V22.6013C37.8349 21.2679 38.9158 20.187 40.2492 20.187Z" fill="#58C0A6"/>
<defs>
<filter id="filter0_b_1413_830" x="-100" y="-100" width="280" height="280" filterUnits="userSpaceOnUse" color-interpolation-filters="sRGB">
<feFlood flood-opacity="0" result="BackgroundImageFix"/>
<feGaussianBlur in="BackgroundImage" stdDeviation="50"/>
<feComposite in2="SourceAlpha" operator="in" result="effect1_backgroundBlur_1413_830"/>
<feBlend mode="normal" in="SourceGraphic" in2="effect1_backgroundBlur_1413_830" result="shape"/>
</filter>
<linearGradient id="paint0_linear_1413_830" x1="2.34042" y1="1.42012" x2="85.2979" y2="69.2904" gradientUnits="userSpaceOnUse">
<stop stop-color="white"/>
<stop offset="0.526042" stop-color="white" stop-opacity="0.15"/>
<stop offset="1" stop-color="white"/>
</linearGradient>
</defs>
</svg>
