<svg width="50" height="50" viewBox="0 0 50 50" fill="none" xmlns="http://www.w3.org/2000/svg">
<g filter="url(#filter0_b_1413_833)">
<rect width="50" height="50" rx="10" fill="white"/>
<rect x="0.3125" y="0.3125" width="49.375" height="49.375" rx="9.6875" stroke="url(#paint0_linear_1413_833)" stroke-width="0.625"/>
</g>
<path d="M38.6574 23.6832C38.6441 23.5501 38.5796 23.4274 38.4776 23.3409C38.3756 23.2544 38.244 23.2109 38.1106 23.2196C37.9771 23.2283 37.8522 23.2885 37.7623 23.3874C37.6724 23.4864 37.6243 23.6164 37.6284 23.7501L37.673 24.2883L35.894 24.4026C35.7993 23.0826 35.4568 21.7923 34.8846 20.5991L35.7741 20.1362L36.0836 20.733C36.127 20.8169 36.1926 20.8872 36.2732 20.9364C36.3539 20.9856 36.4465 21.0117 36.5409 21.0118C36.6235 21.012 36.7049 20.9919 36.7779 20.9533C36.8991 20.8902 36.9903 20.7818 37.0316 20.6516C37.0729 20.5215 37.0609 20.3803 36.9982 20.2589L35.9024 18.1536C35.8373 18.0357 35.7287 17.9478 35.5997 17.9089C35.4707 17.87 35.3316 17.8831 35.2122 17.9453C35.0927 18.0076 35.0023 18.1142 34.9604 18.2422C34.9185 18.3702 34.9283 18.5096 34.9877 18.6305L35.2973 19.2272L34.3938 19.6957C33.9121 18.893 33.3271 18.1571 32.6538 17.5067L34.6782 15.4823L35.7657 16.5698C35.8626 16.6667 35.994 16.7211 36.131 16.7211C36.268 16.7211 36.3994 16.6667 36.4963 16.5698C36.5932 16.4729 36.6476 16.3415 36.6476 16.2045C36.6476 16.0675 36.5932 15.9361 36.4963 15.8392L33.5991 12.9364C33.5511 12.8885 33.4942 12.8504 33.4315 12.8245C33.3688 12.7985 33.3016 12.7851 33.2338 12.7851C33.166 12.7851 33.0988 12.7985 33.0361 12.8245C32.9734 12.8504 32.9165 12.8885 32.8685 12.9364C32.8205 12.9844 32.7825 13.0414 32.7565 13.104C32.7306 13.1667 32.7172 13.2339 32.7172 13.3017C32.7172 13.3696 32.7306 13.4367 32.7565 13.4994C32.7825 13.5621 32.8205 13.619 32.8685 13.667L33.956 14.7545L31.8842 16.8263C31.2451 16.32 30.5499 15.8886 29.8124 15.5409L30.1665 14.6207L30.7939 14.8633C30.9202 14.9067 31.0584 14.8994 31.1794 14.843C31.3004 14.7867 31.3949 14.6856 31.4429 14.561C31.491 14.4364 31.4888 14.298 31.4369 14.175C31.3851 14.052 31.2875 13.9538 31.1648 13.9012L28.934 13.048C28.8077 13.0046 28.6695 13.0118 28.5485 13.0682C28.4275 13.1246 28.333 13.2257 28.285 13.3503C28.2369 13.4749 28.2391 13.6132 28.291 13.7362C28.3428 13.8593 28.4404 13.9574 28.5631 14.01L29.1933 14.2526L28.8503 15.1477C27.8638 14.7939 26.83 14.589 25.783 14.5398V12.3564H27.1773C27.3141 12.3564 27.4453 12.3021 27.542 12.2053C27.6388 12.1086 27.6931 11.9774 27.6931 11.8406C27.6931 11.7038 27.6388 11.5725 27.542 11.4758C27.4453 11.3791 27.3141 11.3247 27.1773 11.3247H23.3627C23.2258 11.3247 23.0946 11.3791 22.9979 11.4758C22.9011 11.5725 22.8468 11.7038 22.8468 11.8406C22.8468 11.9774 22.9011 12.1086 22.9979 12.2053C23.0946 12.3021 23.2258 12.3564 23.3627 12.3564H24.7569V14.5286C23.865 14.5669 22.9815 14.7178 22.1274 14.9776L21.7788 14.0379L22.4062 13.7953C22.4718 13.7727 22.5321 13.7372 22.5837 13.6908C22.6352 13.6444 22.6769 13.5881 22.7061 13.5252C22.7354 13.4624 22.7517 13.3943 22.7541 13.325C22.7564 13.2556 22.7448 13.1866 22.7199 13.1219C22.6949 13.0572 22.6572 12.9982 22.6089 12.9484C22.5606 12.8986 22.5028 12.859 22.4389 12.8321C22.375 12.8052 22.3064 12.7914 22.237 12.7916C22.1677 12.7918 22.0991 12.806 22.0353 12.8333L19.8046 13.6865C19.6818 13.7391 19.5843 13.8373 19.5324 13.9603C19.4805 14.0833 19.4784 14.2217 19.5264 14.3463C19.5744 14.4708 19.6689 14.572 19.7899 14.6283C19.911 14.6847 20.0492 14.692 20.1754 14.6486L20.8028 14.406L21.1598 15.3401C20.3899 15.6695 19.6617 16.0888 18.9903 16.5893L16.5867 14.1885L17.5961 13.1735C17.6441 13.1255 17.6821 13.0685 17.7081 13.0059C17.7341 12.9432 17.7474 12.876 17.7474 12.8082C17.7474 12.7403 17.7341 12.6732 17.7081 12.6105C17.6821 12.5478 17.6441 12.4909 17.5961 12.4429C17.5481 12.3949 17.4912 12.3569 17.4285 12.3309C17.3658 12.3049 17.2987 12.2916 17.2308 12.2916C17.163 12.2916 17.0958 12.3049 17.0331 12.3309C16.9705 12.3569 16.9135 12.3949 16.8655 12.4429L14.1189 15.1979C14.0657 15.2445 14.0227 15.3016 13.9925 15.3656C13.9623 15.4296 13.9456 15.4991 13.9434 15.5698C13.9412 15.6406 13.9536 15.711 13.9798 15.7767C14.006 15.8424 14.0454 15.9021 14.0957 15.9519C14.1459 16.0017 14.2058 16.0407 14.2717 16.0664C14.3377 16.0921 14.4082 16.1039 14.4789 16.1012C14.5496 16.0985 14.619 16.0813 14.6827 16.0506C14.7465 16.0199 14.8032 15.9764 14.8495 15.9229L15.8617 14.9107L18.1901 17.239C17.2868 18.0448 16.5268 18.9981 15.9426 20.0582L14.9526 19.5479L15.2622 18.9512C15.3216 18.8303 15.3315 18.6909 15.2895 18.5629C15.2476 18.4348 15.1572 18.3283 15.0378 18.266C14.9183 18.2037 14.7792 18.1907 14.6502 18.2296C14.5212 18.2685 14.4126 18.3563 14.3476 18.4743L13.7899 19.5284L13.2322 20.5824C13.1695 20.7037 13.1575 20.8449 13.1988 20.9751C13.2401 21.1052 13.3313 21.2137 13.4525 21.2767C13.5255 21.3153 13.6069 21.3355 13.6895 21.3353C13.7839 21.3351 13.8765 21.309 13.9572 21.2599C14.0378 21.2107 14.1034 21.1403 14.1468 21.0564L14.4563 20.4597L15.4685 20.9867C15.0082 22.0756 14.7339 23.234 14.6571 24.4137L12.5769 24.2883L12.6103 23.7585C12.6144 23.6248 12.5664 23.4948 12.4765 23.3958C12.3865 23.2968 12.2616 23.2367 12.1282 23.228C11.9947 23.2193 11.8631 23.2628 11.7611 23.3493C11.6591 23.4357 11.5947 23.5585 11.5814 23.6915L11.4615 25.702C11.4558 25.7705 11.4638 25.8394 11.4851 25.9047C11.5064 25.97 11.5405 26.0304 11.5854 26.0823C11.6304 26.1342 11.6852 26.1767 11.7468 26.2072C11.8083 26.2376 11.8753 26.2555 11.9439 26.2597H11.9774C12.1104 26.2598 12.2383 26.2086 12.3345 26.1166C12.4306 26.0246 12.4875 25.8991 12.4932 25.7662L12.5239 25.3088L14.6571 25.4455C14.6859 26.4892 14.8691 27.5228 15.2008 28.5128L14.1189 29.0705L13.8094 28.4737C13.7443 28.3558 13.6357 28.2679 13.5067 28.229C13.3777 28.1901 13.2386 28.2032 13.1192 28.2654C12.9997 28.3277 12.9094 28.4343 12.8674 28.5623C12.8255 28.6903 12.8353 28.8297 12.8948 28.9506L13.9711 31.0754C14.0145 31.1593 14.0801 31.2296 14.1607 31.2788C14.2414 31.328 14.334 31.3541 14.4284 31.3542C14.511 31.3544 14.5924 31.3343 14.6654 31.2957C14.7866 31.2327 14.8778 31.1242 14.9191 30.994C14.9604 30.8639 14.9484 30.7227 14.8857 30.6013L14.5762 30.0046L15.5633 29.4943C15.9484 30.3567 16.4463 31.164 17.044 31.8952L14.8076 33.8137L14.3113 33.2281C14.221 33.1304 14.0966 33.0714 13.9639 33.0634C13.8311 33.0553 13.7004 33.0988 13.599 33.1847C13.4976 33.2707 13.4332 33.3925 13.4194 33.5248C13.4056 33.657 13.4434 33.7895 13.525 33.8945L15.3709 36.0695C15.4612 36.1671 15.5857 36.2261 15.7184 36.2342C15.8511 36.2423 15.9818 36.1988 16.0832 36.1128C16.1847 36.0269 16.249 35.9051 16.2628 35.7728C16.2766 35.6406 16.2388 35.5081 16.1573 35.4031L15.4657 34.6056L17.7495 32.6537C18.3919 33.3006 19.1144 33.8629 19.8994 34.3267L19.3835 35.2525L18.7951 34.9235C18.7359 34.8876 18.67 34.8641 18.6014 34.8543C18.5328 34.8444 18.4629 34.8485 18.396 34.8663C18.329 34.8841 18.2663 34.9151 18.2116 34.9577C18.1569 35.0002 18.1114 35.0533 18.0776 35.1138C18.0439 35.1743 18.0227 35.241 18.0153 35.3099C18.0079 35.3788 18.0145 35.4484 18.0346 35.5147C18.0548 35.581 18.088 35.6426 18.1324 35.6957C18.1769 35.7489 18.2316 35.7926 18.2932 35.8241L19.3305 36.4041L20.3678 36.9841C20.4271 37.02 20.493 37.0435 20.5616 37.0533C20.6302 37.0631 20.7 37.0591 20.767 37.0413C20.834 37.0235 20.8967 36.9925 20.9514 36.9499C21.0061 36.9074 21.0516 36.8543 21.0853 36.7938C21.1191 36.7333 21.1403 36.6666 21.1477 36.5977C21.155 36.5288 21.1485 36.4591 21.1284 36.3929C21.1082 36.3266 21.075 36.265 21.0305 36.2118C20.9861 36.1587 20.9314 36.115 20.8698 36.0835L20.2814 35.7544L20.8112 34.8063C22.0528 35.3831 23.3949 35.7127 24.7625 35.7767V37.9071H23.3682C23.2314 37.9071 23.1002 37.9615 23.0035 38.0582C22.9067 38.1549 22.8524 38.2862 22.8524 38.423C22.8524 38.5598 22.9067 38.691 23.0035 38.7877C23.1002 38.8845 23.2314 38.9388 23.3682 38.9388H27.1968C27.3336 38.9388 27.4648 38.8845 27.5616 38.7877C27.6583 38.691 27.7127 38.5598 27.7127 38.423C27.7127 38.2862 27.6583 38.1549 27.5616 38.0582C27.4648 37.9615 27.3336 37.9071 27.1968 37.9071H25.8026V35.7767C26.8793 35.726 27.942 35.5107 28.9535 35.1382L29.3077 36.0472L28.6775 36.287C28.5547 36.3396 28.4572 36.4377 28.4053 36.5608C28.3534 36.6838 28.3513 36.8222 28.3993 36.9467C28.4473 37.0713 28.5418 37.1724 28.6628 37.2288C28.7839 37.2852 28.9221 37.2924 29.0483 37.249L31.2791 36.3986C31.4008 36.344 31.4966 36.2445 31.5465 36.1208C31.5964 35.9972 31.5964 35.859 31.5467 35.7353C31.4969 35.6116 31.4012 35.5119 31.2795 35.4573C31.1579 35.4026 31.0198 35.3972 30.8943 35.4421L30.2669 35.6819L29.8988 34.7255C30.7665 34.3056 31.5732 33.77 32.2969 33.1333L34.1066 34.943L33.3119 35.721C33.2634 35.7693 33.2248 35.8267 33.1985 35.8899C33.1722 35.9532 33.1586 36.021 33.1584 36.0894C33.1583 36.1579 33.1717 36.2258 33.1978 36.2891C33.2238 36.3524 33.2622 36.41 33.3105 36.4585C33.3588 36.507 33.4162 36.5455 33.4795 36.5719C33.5427 36.5982 33.6105 36.6118 33.679 36.612C33.7475 36.6121 33.8153 36.5987 33.8786 36.5726C33.942 36.5465 33.9995 36.5082 34.048 36.4599L36.3597 34.1483C36.4566 34.0514 36.511 33.92 36.511 33.783C36.511 33.646 36.4566 33.5146 36.3597 33.4177C36.2628 33.3208 36.1314 33.2664 35.9944 33.2664C35.8574 33.2664 35.726 33.3208 35.6291 33.4177L34.8372 34.2096L33.0386 32.4111C33.8359 31.562 34.4887 30.588 34.971 29.5278L35.8884 30.0046L35.5789 30.6013C35.5163 30.7227 35.5043 30.8639 35.5456 30.994C35.5868 31.1242 35.6781 31.2327 35.7992 31.2957C35.8722 31.3343 35.9536 31.3544 36.0362 31.3542C36.1307 31.3541 36.2232 31.328 36.3039 31.2788C36.3845 31.2296 36.4501 31.1593 36.4935 31.0754L37.5894 28.9645C37.6488 28.8436 37.6587 28.7043 37.6167 28.5762C37.5748 28.4482 37.4844 28.3417 37.365 28.2794C37.2455 28.2171 37.1064 28.204 36.9774 28.2429C36.8485 28.2819 36.7398 28.3697 36.6748 28.4877L36.3652 29.0844L35.353 28.5602C35.6963 27.5487 35.8843 26.491 35.9107 25.4232L37.7344 25.3061L37.7651 25.7634C37.7748 25.8919 37.8323 26.0121 37.9262 26.1003C38.0201 26.1886 38.1437 26.2385 38.2726 26.2402H38.306C38.3746 26.236 38.4416 26.2181 38.5031 26.1876C38.5647 26.1572 38.6196 26.1147 38.6645 26.0628C38.7094 26.0108 38.7435 25.9504 38.7648 25.8851C38.7861 25.8198 38.7941 25.7509 38.7884 25.6825L38.6574 23.6832ZM25.2727 34.7617C23.7248 34.763 22.1994 34.3902 20.8265 33.6751C19.4536 32.9601 18.2738 31.924 17.3874 30.6549C16.501 29.3858 15.9343 27.9214 15.7356 26.3863C15.5369 24.8511 15.712 23.2907 16.246 21.8378C16.78 20.3848 17.6572 19.0824 18.8028 18.0414C19.9483 17.0003 21.3285 16.2514 22.8257 15.8584C24.323 15.4655 25.893 15.44 27.4022 15.7843C28.9114 16.1286 30.3151 16.8324 31.4938 17.8358C31.5068 17.8593 31.5217 17.8817 31.5384 17.9027C31.5706 17.9304 31.6062 17.9538 31.6444 17.9724C33.1055 19.263 34.1389 20.9681 34.6069 22.8606C35.0748 24.7532 34.9552 26.7434 34.2639 28.5662C33.5726 30.3891 32.3425 31.9581 30.7372 33.0644C29.132 34.1707 27.2279 34.7618 25.2783 34.7589L25.2727 34.7617Z" fill="#58C0A6"/>
<path d="M26.7061 26.3267C26.0229 26.3267 25.3551 26.5292 24.787 26.9087C24.2189 27.2882 23.7761 27.8276 23.5145 28.4588C23.2529 29.0899 23.1843 29.7844 23.3174 30.4546C23.4505 31.1247 23.7793 31.7403 24.2622 32.2236C24.7451 32.7069 25.3604 33.0361 26.0304 33.1697C26.7004 33.3034 27.395 33.2353 28.0263 32.9743C28.6577 32.7132 29.1975 32.2708 29.5774 31.703C29.9574 31.1352 30.1605 30.4675 30.161 29.7844C30.1603 28.868 29.7961 27.9894 29.1485 27.3412C28.5008 26.693 27.6225 26.3281 26.7061 26.3267V26.3267ZM26.7061 32.2047C26.2269 32.2047 25.7584 32.0626 25.3599 31.7964C24.9614 31.5301 24.6508 31.1517 24.4674 30.7089C24.284 30.2661 24.236 29.7789 24.3295 29.3088C24.423 28.8388 24.6538 28.407 24.9927 28.0681C25.3316 27.7292 25.7633 27.4985 26.2334 27.405C26.7034 27.3115 27.1907 27.3594 27.6334 27.5428C28.0762 27.7262 28.4547 28.0368 28.7209 28.4353C28.9872 28.8338 29.1293 29.3023 29.1293 29.7816C29.1293 30.4245 28.8741 31.0411 28.4197 31.496C27.9654 31.9509 27.349 32.2068 26.7061 32.2075V32.2047Z" fill="#58C0A6"/>
<path d="M19.5816 22.0073C19.0803 22.0073 18.5902 22.156 18.1734 22.4345C17.7565 22.713 17.4317 23.1089 17.2398 23.572C17.048 24.0352 16.9978 24.5448 17.0956 25.0365C17.1934 25.5282 17.4348 25.9799 17.7893 26.3344C18.1438 26.6888 18.5954 26.9302 19.0871 27.028C19.5788 27.1259 20.0884 27.0757 20.5516 26.8838C21.0147 26.692 21.4106 26.3671 21.6891 25.9502C21.9676 25.5334 22.1163 25.0434 22.1163 24.542C22.1156 23.87 21.8483 23.2257 21.3731 22.7505C20.8979 22.2753 20.2536 22.0081 19.5816 22.0073V22.0073ZM19.5816 26.0422C19.2843 26.0422 18.9937 25.9541 18.7466 25.7889C18.4994 25.6238 18.3068 25.389 18.193 25.1144C18.0793 24.8398 18.0495 24.5376 18.1075 24.246C18.1655 23.9545 18.3086 23.6867 18.5188 23.4765C18.729 23.2663 18.9968 23.1231 19.2884 23.0651C19.5799 23.0072 19.8821 23.0369 20.1568 23.1507C20.4314 23.2644 20.6661 23.4571 20.8313 23.7042C20.9964 23.9514 21.0846 24.242 21.0846 24.5392C21.0846 24.9379 20.9262 25.3202 20.6444 25.602C20.3625 25.8839 19.9802 26.0422 19.5816 26.0422Z" fill="#58C0A6"/>
<path d="M24.6148 19.2359C25.0829 19.2359 25.4625 18.8564 25.4625 18.3882C25.4625 17.9201 25.0829 17.5405 24.6148 17.5405C24.1466 17.5405 23.7671 17.9201 23.7671 18.3882C23.7671 18.8564 24.1466 19.2359 24.6148 19.2359Z" fill="#58C0A6"/>
<path d="M29.1069 24.23C30.0494 24.23 30.8135 23.4659 30.8135 22.5234C30.8135 21.5809 30.0494 20.8169 29.1069 20.8169C28.1644 20.8169 27.4004 21.5809 27.4004 22.5234C27.4004 23.4659 28.1644 24.23 29.1069 24.23Z" fill="#58C0A6"/>
<path d="M20.8281 30.9389C21.2547 30.9389 21.6005 30.593 21.6005 30.1664C21.6005 29.7399 21.2547 29.394 20.8281 29.394C20.4015 29.394 20.0557 29.7399 20.0557 30.1664C20.0557 30.593 20.4015 30.9389 20.8281 30.9389Z" fill="#58C0A6"/>
<path d="M31.976 27.933C32.5782 27.933 33.0663 27.4449 33.0663 26.8427C33.0663 26.2406 32.5782 25.7524 31.976 25.7524C31.3739 25.7524 30.8857 26.2406 30.8857 26.8427C30.8857 27.4449 31.3739 27.933 31.976 27.933Z" fill="#58C0A6"/>
<path d="M20.8278 20.3261C21.43 20.3261 21.9181 19.8379 21.9181 19.2358C21.9181 18.6336 21.43 18.1455 20.8278 18.1455C20.2257 18.1455 19.7375 18.6336 19.7375 19.2358C19.7375 19.8379 20.2257 20.3261 20.8278 20.3261Z" fill="#58C0A6"/>
<path d="M24.9689 24.7234C25.2415 24.7234 25.4625 24.5025 25.4625 24.2299C25.4625 23.9573 25.2415 23.7363 24.9689 23.7363C24.6963 23.7363 24.4753 23.9573 24.4753 24.2299C24.4753 24.5025 24.6963 24.7234 24.9689 24.7234Z" fill="#58C0A6"/>
<path d="M28.2257 18.8816C28.4983 18.8816 28.7193 18.6607 28.7193 18.3881C28.7193 18.1155 28.4983 17.8945 28.2257 17.8945C27.9532 17.8945 27.7322 18.1155 27.7322 18.3881C27.7322 18.6607 27.9532 18.8816 28.2257 18.8816Z" fill="#58C0A6"/>
<defs>
<filter id="filter0_b_1413_833" x="-62.5" y="-62.5" width="175" height="175" filterUnits="userSpaceOnUse" color-interpolation-filters="sRGB">
<feFlood flood-opacity="0" result="BackgroundImageFix"/>
<feGaussianBlur in="BackgroundImage" stdDeviation="31.25"/>
<feComposite in2="SourceAlpha" operator="in" result="effect1_backgroundBlur_1413_833"/>
<feBlend mode="normal" in="SourceGraphic" in2="effect1_backgroundBlur_1413_833" result="shape"/>
</filter>
<linearGradient id="paint0_linear_1413_833" x1="1.46276" y1="0.887575" x2="53.3112" y2="43.3065" gradientUnits="userSpaceOnUse">
<stop stop-color="white" stop-opacity="0.15"/>
<stop offset="1" stop-color="#16B5E7"/>
</linearGradient>
</defs>
</svg>
