<svg width="80" height="80" viewBox="0 0 80 80" fill="none" xmlns="http://www.w3.org/2000/svg">
<g filter="url(#filter0_b_1413_829)">
<rect width="80" height="80" rx="16" fill="white" fill-opacity="0.3"/>
<rect x="1" y="1" width="78" height="78" rx="15" stroke="url(#paint0_linear_1413_829)" stroke-width="2"/>
</g>
<path d="M32.98 11.9941C29.1389 11.9941 26.0018 15.1968 26.0018 19.0379C26.0018 22.142 28.065 24.7639 30.88 25.666V42.0941C30.88 42.651 31.1013 43.1852 31.4951 43.579C31.8889 43.9728 32.4231 44.194 32.98 44.1941H49.9331L57.7425 58.5004C57.9199 58.8346 58.1843 59.1147 58.5077 59.311C58.8311 59.5074 59.2016 59.6128 59.58 59.6159L64.48 59.5942C64.7583 59.5982 65.0345 59.5467 65.2928 59.443C65.551 59.3392 65.786 59.1852 65.9842 58.9898C66.1824 58.7944 66.3398 58.5615 66.4472 58.3048C66.5546 58.0481 66.6099 57.7725 66.6099 57.4942C66.6099 57.2159 66.5546 56.9404 66.4472 56.6837C66.3398 56.4269 66.1824 56.1941 65.9842 55.9987C65.786 55.8033 65.551 55.6492 65.2928 55.5455C65.0345 55.4417 64.7583 55.3903 64.48 55.3942L60.8268 55.4159L53.0175 41.1097C52.8401 40.7755 52.5757 40.4953 52.2523 40.299C51.9288 40.1026 51.5584 39.9973 51.18 39.9941H35.08V35.0941H48.38C48.6583 35.0981 48.9345 35.0467 49.1928 34.9429C49.451 34.8391 49.686 34.6851 49.8842 34.4897C50.0824 34.2943 50.2398 34.0615 50.3472 33.8047C50.4546 33.548 50.5099 33.2724 50.5099 32.9941C50.5099 32.7158 50.4546 32.4403 50.3472 32.1836C50.2398 31.9268 50.0824 31.694 49.8842 31.4986C49.686 31.3032 49.451 31.1492 49.1928 31.0454C48.9345 30.9416 48.6583 30.8902 48.38 30.8941H35.08V25.6879C37.9081 24.7937 39.98 22.1514 39.98 19.0379C39.98 15.1968 36.8211 11.9941 32.98 11.9941V11.9941ZM32.98 16.216C34.5513 16.216 35.8018 17.4666 35.8018 19.0379C35.8018 20.6092 34.5513 21.8379 32.98 21.8379C31.4088 21.8379 30.18 20.6092 30.18 19.0379C30.18 17.4666 31.4088 16.216 32.98 16.216ZM23.7706 32.4473C23.439 32.4663 23.1166 32.5638 22.83 32.7316C18.4897 35.2375 15.3333 39.375 14.0362 44.216C11.3411 54.2745 17.3215 64.6645 27.38 67.3597C37.4384 70.0549 47.8504 64.0745 50.5456 54.016C50.6175 53.7488 50.636 53.4701 50.6001 53.1957C50.5643 52.9214 50.4747 52.6568 50.3366 52.4171C50.1985 52.1774 50.0145 51.9673 49.7951 51.7987C49.5758 51.63 49.3253 51.5063 49.0582 51.4345C48.791 51.3626 48.5123 51.3441 48.238 51.38C47.9636 51.4159 47.6991 51.5055 47.4594 51.6437C47.2196 51.7818 47.0095 51.9659 46.8409 52.1852C46.6723 52.4046 46.5486 52.655 46.4768 52.9222C44.3693 60.7882 36.3397 65.4206 28.4737 63.3129C20.6078 61.2052 15.9755 53.1757 18.0831 45.3097C19.0924 41.5431 21.553 38.3564 24.93 36.4066C25.3052 36.2022 25.6091 35.8881 25.8011 35.5064C25.9931 35.1247 26.0642 34.6935 26.0048 34.2704C25.9453 33.8473 25.7583 33.4524 25.4685 33.1383C25.1788 32.8243 24.8001 32.6061 24.3831 32.5129C24.1833 32.461 23.9769 32.4389 23.7706 32.4473V32.4473Z" fill="#58C0A6"/>
<defs>
<filter id="filter0_b_1413_829" x="-100" y="-100" width="280" height="280" filterUnits="userSpaceOnUse" color-interpolation-filters="sRGB">
<feFlood flood-opacity="0" result="BackgroundImageFix"/>
<feGaussianBlur in="BackgroundImage" stdDeviation="50"/>
<feComposite in2="SourceAlpha" operator="in" result="effect1_backgroundBlur_1413_829"/>
<feBlend mode="normal" in="SourceGraphic" in2="effect1_backgroundBlur_1413_829" result="shape"/>
</filter>
<linearGradient id="paint0_linear_1413_829" x1="2.34042" y1="1.42012" x2="85.2979" y2="69.2904" gradientUnits="userSpaceOnUse">
<stop stop-color="white"/>
<stop offset="0.526042" stop-color="white" stop-opacity="0.15"/>
<stop offset="1" stop-color="white"/>
</linearGradient>
</defs>
</svg>
