<svg width="50" height="50" viewBox="0 0 50 50" fill="none" xmlns="http://www.w3.org/2000/svg">
<g filter="url(#filter0_b_1413_834)">
<rect width="50" height="50" rx="10" fill="white"/>
<rect x="0.3125" y="0.3125" width="49.375" height="49.375" rx="9.6875" stroke="url(#paint0_linear_1413_834)" stroke-width="0.625"/>
</g>
<g clip-path="url(#clip0_1413_834)">
<path d="M21.1602 18.8945H22.8594V20.5938C22.8594 20.744 22.919 20.888 23.0253 20.9943C23.1315 21.1005 23.2756 21.1602 23.4258 21.1602H26.8242C26.9744 21.1602 27.1185 21.1005 27.2247 20.9943C27.331 20.888 27.3906 20.744 27.3906 20.5938V18.8945H29.0898C29.2401 18.8945 29.3841 18.8349 29.4904 18.7286C29.5966 18.6224 29.6562 18.4783 29.6562 18.3281V14.9297C29.6562 14.7795 29.5966 14.6354 29.4904 14.5292C29.3841 14.423 29.2401 14.3633 29.0898 14.3633H27.3906V12.6641C27.3906 12.5138 27.331 12.3698 27.2247 12.2636C27.1185 12.1573 26.9744 12.0977 26.8242 12.0977H23.4258C23.2756 12.0977 23.1315 12.1573 23.0253 12.2636C22.919 12.3698 22.8594 12.5138 22.8594 12.6641V14.3633H21.1602C21.0099 14.3633 20.8659 14.423 20.7596 14.5292C20.6534 14.6354 20.5938 14.7795 20.5938 14.9297V18.3281C20.5938 18.4783 20.6534 18.6224 20.7596 18.7286C20.8659 18.8349 21.0099 18.8945 21.1602 18.8945ZM21.7266 15.4961H23.4258C23.576 15.4961 23.7201 15.4364 23.8263 15.3302C23.9325 15.224 23.9922 15.0799 23.9922 14.9297V13.2305H26.2578V14.9297C26.2578 15.0799 26.3175 15.224 26.4237 15.3302C26.5299 15.4364 26.674 15.4961 26.8242 15.4961H28.5234V17.7617H26.8242C26.674 17.7617 26.5299 17.8214 26.4237 17.9276C26.3175 18.0338 26.2578 18.1779 26.2578 18.3281V20.0273H23.9922V18.3281C23.9922 18.1779 23.9325 18.0338 23.8263 17.9276C23.7201 17.8214 23.576 17.7617 23.4258 17.7617H21.7266V15.4961Z" fill="#58C0A6"/>
<path d="M40.9844 23.4258H34.1875V9.26562C34.1875 9.1154 34.1278 8.97134 34.0216 8.86512C33.9154 8.75889 33.7713 8.69922 33.6211 8.69922H16.6289C16.4787 8.69922 16.3346 8.75889 16.2284 8.86512C16.1222 8.97134 16.0625 9.1154 16.0625 9.26562V23.4258H9.26562C9.1154 23.4258 8.97134 23.4855 8.86512 23.5917C8.75889 23.6979 8.69922 23.842 8.69922 23.9922V40.9844C8.69922 41.1346 8.75889 41.2787 8.86512 41.3849C8.97134 41.4911 9.1154 41.5508 9.26562 41.5508H40.9844C41.1346 41.5508 41.2787 41.4911 41.3849 41.3849C41.4911 41.2787 41.5508 41.1346 41.5508 40.9844V23.9922C41.5508 23.842 41.4911 23.6979 41.3849 23.5917C41.2787 23.4855 41.1346 23.4258 40.9844 23.4258ZM9.83203 24.5586H16.0625V40.418H9.83203V24.5586ZM17.1953 23.9922V9.83203H33.0547V40.418H29.6562V33.0547C29.6562 32.9045 29.5966 32.7604 29.4904 32.6542C29.3841 32.548 29.2401 32.4883 29.0898 32.4883H21.1602C21.0099 32.4883 20.8659 32.548 20.7596 32.6542C20.6534 32.7604 20.5938 32.9045 20.5938 33.0547V40.418H17.1953V23.9922ZM21.7266 40.418V33.6211H28.5234V40.418H21.7266ZM40.418 40.418H34.1875V24.5586H40.418V40.418Z" fill="#58C0A6"/>
<path d="M23.4258 29.6562C23.576 29.6562 23.7201 29.5966 23.8263 29.4904C23.9325 29.3841 23.9922 29.2401 23.9922 29.0898V25.6914C23.9922 25.5412 23.9325 25.3971 23.8263 25.2909C23.7201 25.1847 23.576 25.125 23.4258 25.125H20.0273C19.8771 25.125 19.7331 25.1847 19.6268 25.2909C19.5206 25.3971 19.4609 25.5412 19.4609 25.6914V29.0898C19.4609 29.2401 19.5206 29.3841 19.6268 29.4904C19.7331 29.5966 19.8771 29.6562 20.0273 29.6562H23.4258ZM20.5938 26.2578H22.8594V28.5234H20.5938V26.2578Z" fill="#58C0A6"/>
<path d="M26.2578 25.6914V29.0898C26.2578 29.2401 26.3175 29.3841 26.4237 29.4904C26.5299 29.5966 26.674 29.6562 26.8242 29.6562H30.2227C30.3729 29.6562 30.5169 29.5966 30.6232 29.4904C30.7294 29.3841 30.7891 29.2401 30.7891 29.0898V25.6914C30.7891 25.5412 30.7294 25.3971 30.6232 25.2909C30.5169 25.1847 30.3729 25.125 30.2227 25.125H26.8242C26.674 25.125 26.5299 25.1847 26.4237 25.2909C26.3175 25.3971 26.2578 25.5412 26.2578 25.6914ZM27.3906 26.2578H29.6562V28.5234H27.3906V26.2578Z" fill="#58C0A6"/>
<path d="M35.8867 30.7891H38.7188C38.869 30.7891 39.013 30.7294 39.1193 30.6232C39.2255 30.5169 39.2852 30.3729 39.2852 30.2227V27.3906C39.2852 27.2404 39.2255 27.0963 39.1193 26.9901C39.013 26.8839 38.869 26.8242 38.7188 26.8242H35.8867C35.7365 26.8242 35.5924 26.8839 35.4862 26.9901C35.38 27.0963 35.3203 27.2404 35.3203 27.3906V30.2227C35.3203 30.3729 35.38 30.5169 35.4862 30.6232C35.5924 30.7294 35.7365 30.7891 35.8867 30.7891ZM36.4531 27.957H38.1523V29.6562H36.4531V27.957Z" fill="#58C0A6"/>
<path d="M35.8867 36.4531H38.7188C38.869 36.4531 39.013 36.3935 39.1193 36.2872C39.2255 36.181 39.2852 36.0369 39.2852 35.8867V33.0547C39.2852 32.9045 39.2255 32.7604 39.1193 32.6542C39.013 32.548 38.869 32.4883 38.7188 32.4883H35.8867C35.7365 32.4883 35.5924 32.548 35.4862 32.6542C35.38 32.7604 35.3203 32.9045 35.3203 33.0547V35.8867C35.3203 36.0369 35.38 36.181 35.4862 36.2872C35.5924 36.3935 35.7365 36.4531 35.8867 36.4531ZM36.4531 33.6211H38.1523V35.3203H36.4531V33.6211Z" fill="#58C0A6"/>
<path d="M14.3633 26.8242H11.5312C11.381 26.8242 11.237 26.8839 11.1307 26.9901C11.0245 27.0963 10.9648 27.2404 10.9648 27.3906V30.2227C10.9648 30.3729 11.0245 30.5169 11.1307 30.6232C11.237 30.7294 11.381 30.7891 11.5312 30.7891H14.3633C14.5135 30.7891 14.6576 30.7294 14.7638 30.6232C14.87 30.5169 14.9297 30.3729 14.9297 30.2227V27.3906C14.9297 27.2404 14.87 27.0963 14.7638 26.9901C14.6576 26.8839 14.5135 26.8242 14.3633 26.8242ZM13.7969 29.6562H12.0977V27.957H13.7969V29.6562Z" fill="#58C0A6"/>
<path d="M14.3633 32.4883H11.5312C11.381 32.4883 11.237 32.548 11.1307 32.6542C11.0245 32.7604 10.9648 32.9045 10.9648 33.0547V35.8867C10.9648 36.0369 11.0245 36.181 11.1307 36.2872C11.237 36.3935 11.381 36.4531 11.5312 36.4531H14.3633C14.5135 36.4531 14.6576 36.3935 14.7638 36.2872C14.87 36.181 14.9297 36.0369 14.9297 35.8867V33.0547C14.9297 32.9045 14.87 32.7604 14.7638 32.6542C14.6576 32.548 14.5135 32.4883 14.3633 32.4883ZM13.7969 35.3203H12.0977V33.6211H13.7969V35.3203Z" fill="#58C0A6"/>
</g>
<defs>
<filter id="filter0_b_1413_834" x="-62.5" y="-62.5" width="175" height="175" filterUnits="userSpaceOnUse" color-interpolation-filters="sRGB">
<feFlood flood-opacity="0" result="BackgroundImageFix"/>
<feGaussianBlur in="BackgroundImage" stdDeviation="31.25"/>
<feComposite in2="SourceAlpha" operator="in" result="effect1_backgroundBlur_1413_834"/>
<feBlend mode="normal" in="SourceGraphic" in2="effect1_backgroundBlur_1413_834" result="shape"/>
</filter>
<linearGradient id="paint0_linear_1413_834" x1="1.46276" y1="0.887575" x2="53.3112" y2="43.3065" gradientUnits="userSpaceOnUse">
<stop stop-color="white" stop-opacity="0.15"/>
<stop offset="1" stop-color="#16B5E7"/>
</linearGradient>
<clipPath id="clip0_1413_834">
<rect width="36.25" height="36.25" fill="white" transform="translate(7 7)"/>
</clipPath>
</defs>
</svg>
