<svg width="23" height="18" viewBox="0 0 23 18" fill="none" xmlns="http://www.w3.org/2000/svg">
<path fill-rule="evenodd" clip-rule="evenodd" d="M20.3627 2.82838C21.2716 2.71288 22.1433 2.475 22.9614 2.11613C22.3482 3.02913 21.5961 3.8225 20.7009 4.45775C20.7106 4.64887 20.7174 4.84137 20.7174 5.04075C20.7174 11 16.1799 17.875 7.88043 17.875C5.32705 17.875 2.9593 17.1394 0.961426 15.851C1.31618 15.8964 1.67093 15.9129 2.0408 15.9129C4.15005 15.9129 6.09843 15.1896 7.63293 13.9893C5.66118 13.9466 4.00293 12.6335 3.41855 10.8474C3.69218 10.9079 3.98368 10.9244 4.27243 10.9244C4.68768 10.9244 5.0878 10.8763 5.45493 10.7759C3.4048 10.3565 1.84143 8.536 1.84143 6.34425V6.29475C2.44368 6.62613 3.15455 6.8365 3.87918 6.85025C2.68018 6.04862 1.8758 4.664 1.8758 3.102C1.8758 2.27012 2.10405 1.49738 2.49318 0.82225C4.72205 3.55988 8.03993 5.357 11.7896 5.53988C11.7153 5.21263 11.6851 4.86888 11.6851 4.51137C11.6851 2.02675 13.6953 0 16.1923 0C17.4793 0 18.6591 0.545875 19.4868 1.42725C20.5126 1.22238 21.475 0.85525 22.3468 0.3355C22.0113 1.39287 21.2977 2.27013 20.3627 2.82838Z" fill="#222E55"/>
</svg>
